<svg id="logo" xmlns="http://www.w3.org/2000/svg" viewBox="0 0 2000 355.24"><defs><style>.cls-1{fill:#4d4d4d;}.cls-2{fill:#eab300;}.cls-3{fill:#fff;}</style></defs><title>bsv-logo-full</title><path class="cls-1" d="M473.65,353q-26.52,0-52.81-1.58a381.5,381.5,0,0,1-54.68-7.52V37.8A475.71,475.71,0,0,1,415,31.65q26.52-2,49.32-2a343.64,343.64,0,0,1,56.55,4.33q25.82,4.34,44.44,14.8a78.58,78.58,0,0,1,29.08,27.56q10.47,17.07,10.47,42.12,0,37.82-37.22,59.67,30.71,11.38,41.88,31t11.17,44.17q0,49.65-37,74.7T473.65,353ZM436.89,157.13h35.37q33.5,0,47.93-8.43t14.42-27.1q0-19.12-14.89-26.87T476,87q-9.32,0-20,.23t-19.08,1.13Zm0,54.19v81.52q7.91.93,17.22,1.37t20.47.46q32.57,0,52.59-9.11t20-33.71q0-21.85-16.75-31.19t-47.94-9.34Z"/><path class="cls-1" d="M726.8,40.08q0,18.68-12.32,29.37a44.89,44.89,0,0,1-58.18,0Q644,58.76,644,40.08T656.3,10.7a44.89,44.89,0,0,1,58.18,0Q726.8,21.41,726.8,40.08Zm-6.51,308.79H651V109.3h69.34Z"/><path class="cls-1" d="M759.84,49.64l69.34-10.93V109.3h83.29v56.48H829.18V250q0,21.42,7.68,34.17T867.8,297a135.92,135.92,0,0,0,23-2.05,119.86,119.86,0,0,0,21.64-5.7L922.25,342a201,201,0,0,1-27.92,8.65q-15.36,3.63-37.7,3.64-28.38,0-47-7.52t-29.78-20.95q-11.18-13.41-15.59-32.56a188.13,188.13,0,0,1-4.42-42.36Z"/><path class="cls-1" d="M924.57,229.09a138.25,138.25,0,0,1,8.61-49,116.25,116.25,0,0,1,24.9-40.08A118.61,118.61,0,0,1,997.63,113q23.25-10,53-10a175.35,175.35,0,0,1,35.84,3.41,177.72,177.72,0,0,1,31.64,9.8l-14.43,54.19a178.88,178.88,0,0,0-21.4-6.37,114.36,114.36,0,0,0-26.06-2.74q-30.72,0-45.83,18.68T995.3,229.09q0,32.34,14.19,50.1T1059.05,297a173.43,173.43,0,0,0,27-2.28,116.46,116.46,0,0,0,26.53-7.29l9.77,55.57q-12.1,5-30.25,8.65a204.37,204.37,0,0,1-40,3.64q-33.51,0-57.71-9.79t-39.78-26.64A103.41,103.41,0,0,1,931.78,279,165.82,165.82,0,0,1,924.57,229.09Z"/><path class="cls-1" d="M1362.93,228.63q0,28.25-8.38,51.69a111.67,111.67,0,0,1-24.2,40.08,108.91,108.91,0,0,1-37.92,25.74q-22.11,9.09-49.56,9.1-27,0-49.09-9.1a108.8,108.8,0,0,1-37.94-25.74,117.17,117.17,0,0,1-24.65-40.08q-8.85-23.46-8.85-51.69t9.08-51.46a116.37,116.37,0,0,1,25.12-39.63,113.06,113.06,0,0,1,38.17-25.5,125.14,125.14,0,0,1,48.16-9.11q26.52,0,48.63,9.11a110.57,110.57,0,0,1,37.92,25.5,115.39,115.39,0,0,1,24.67,39.63Q1362.93,200.39,1362.93,228.63Zm-70.74,0q0-31.42-12.79-49.41t-36.53-18q-23.73,0-36.76,18t-13,49.41q0,31.43,13,49.87T1242.87,297q23.73,0,36.53-18.45T1292.19,228.63Z"/><path class="cls-1" d="M1469,40.08q0,18.68-12.34,29.37a44.88,44.88,0,0,1-58.17,0q-12.33-10.7-12.32-29.37t12.32-29.38a44.88,44.88,0,0,1,58.17,0Q1469,21.41,1469,40.08Zm-6.52,308.79h-69.34V109.3h69.34Z"/><path class="cls-1" d="M1504.38,117.5q17.68-5,45.61-9.33a383.25,383.25,0,0,1,58.63-4.33q31.17,0,51.89,8t32.81,22.55A87.07,87.07,0,0,1,1710.53,169a180.55,180.55,0,0,1,5.12,44.63V348.87h-69.34V221.8q0-32.79-8.84-46.46t-33-13.66q-7.44,0-15.82.68t-14.89,1.6V348.87h-69.34Z"/><path class="cls-2" d="M1910,251q-14.07-26.9-28.56-63T1854,109.49h43.44q2.76,10.5,6.49,22.74t7.73,24.75q4,12.53,8,24.36t7.88,21.53q3.59-9.69,7.72-21.53t8.14-24.36q4-12.49,7.73-24.75t6.48-22.74H2000q-13,42.53-27.44,78.58T1944,251Z"/><path class="cls-2" d="M1846.18,196.8a31.6,31.6,0,0,0-7.15-12.21,52.83,52.83,0,0,0-13.89-10.25,168.06,168.06,0,0,0-22.27-9.63q-6.58-2.44-10.86-4.48a46.17,46.17,0,0,1-6.73-3.78,9.26,9.26,0,0,1-3.3-3.64,10.57,10.57,0,0,1-.83-4.3q0-10.48,19.25-10.5a86.52,86.52,0,0,1,18.83,1.89,153.09,153.09,0,0,1,15.54,4.31l7.17,2.71,0-33.93a120.57,120.57,0,0,0-19.24-5,136.4,136.4,0,0,0-25.29-2.29q-26.4,0-41.52,11.58t-15.12,31.48a45.57,45.57,0,0,0,3,17.49,36.47,36.47,0,0,0,8.53,12.51,51.47,51.47,0,0,0,13.33,9q7.83,3.76,17.46,7.26,12.38,4.58,18.42,8.21t6,8.47q0,6.19-4.68,8.35t-15.94,2.15a106.08,106.08,0,0,1-21.72-2.29,135.86,135.86,0,0,1-21.43-6.32v35q4.44,1.35,10.84,3,12.8,3.23,32,3.24,29.41,0,45.5-10.74t16.09-31.69A53.35,53.35,0,0,0,1846.18,196.8Z"/><path class="cls-2" d="M322.75,178.44A161.68,161.68,0,0,1,148.51,352.68C70.16,346.5,6.69,283,.52,204.67A161.67,161.67,0,0,1,174.76,30.45C253.1,36.63,316.56,100.1,322.75,178.44Z"/><path class="cls-3" d="M208,185.78c9.63-6.61,16.24-14.05,16.24-28.08,0-22.29-22.17-32.74-35.66-34.07-1.1-.12-4.17-.17-4.17-.17l0-21.32-22,0,.05,21.32-14.7,0,0-21.24H125.4l0,21.14c-3.94.09-27.6.07-27.6.07v18.87s6,0,7.69,0c7.41,0,10.75,4.68,10.75,7.94l0,1.18v81.37a5.47,5.47,0,0,1-5,5.27c-3.36.15-8.36,0-8.36,0l-4.31,21.39,26.89,0V281h22.37l0-21.43h14.7l0,21.47H184.4V259.65s1.2,0,1.61,0c25.3,0,47.36-15,47.69-39.23C234,200.52,217,189,208,185.78Zm-60.18-9.63V143.79c3,0,14.08,0,20.68,0,.63,0,1.13.11,1.73.14,9,.43,14.58,4,17.59,8.3a15.77,15.77,0,0,1,2.95,8.83,21.69,21.69,0,0,1-1.12,6.46,16.41,16.41,0,0,1-2.76,5,14.6,14.6,0,0,1-3.43,3.23c-3.35,2.35-8.06,4.2-14.83,4.53-.09,0-20.48.06-20.81,0Zm49.53,48a17.72,17.72,0,0,1-3,5.39,15.58,15.58,0,0,1-3.71,3.49c-3.62,2.55-8.71,4.55-16,4.9-.09,0-26.46.06-26.81.05V198.51c3.25,0,19.54.05,26.68.05.67,0,1.22.12,1.86.15,9.72.47,15.77,4.33,19,9a17,17,0,0,1,3.19,9.55A23.24,23.24,0,0,1,197.31,224.2Z"/></svg>