<?xml version="1.0" ?><svg viewBox="0 0 405.44 338.58" xmlns="http://www.w3.org/2000/svg"><defs><style>.cls-1{fill:#fbfcf2;}.cls-2{fill:none;stroke:#2e576d;stroke-miterlimit:10;stroke-width:2px;}.cls-3{fill:#2e576d;}.cls-4,.cls-9{fill:#3f5a7c;}.cls-4{opacity:0.15;}.cls-5{fill:#ffc742;}.cls-6{fill:#8a7683;}.cls-14,.cls-6,.cls-7{opacity:0.5;}.cls-7{fill:#dd9e1f;}.cls-8{opacity:0.2;}.cls-10{fill:#274b5b;}.cls-11{fill:#fff;}.cls-12{fill:#e4bd62;}.cls-13{fill:#bb9054;}.cls-15{fill:#a44c3e;}.cls-16{fill:#efefef;}</style></defs><title/><g data-name="Layer 2" id="Layer_2"><g data-name="Layer 1" id="Layer_1-2"><path class="cls-1" d="M159.47,137.87c-16.44-.28-31.84-6.63-46.16-13.52-19-9.12-38.6-20-61.28-19.46-10.55.26-21.25,3.37-28.74,9.7-8.26,7-11.87,17.26-11.9,27.19-.07,23.14,16.59,43.1,19.31,65.8,2.36,19.75-7.08,39.55-2,59.15,7.55,29,39.08,44.8,71,50.47,26.42,4.69,62.15,7.05,82.81-10.76,10.49-9,18.87-23,33.78-23.08,11.71-.1,20.41,8.74,30.59,13.67,17.5,8.48,41,4.67,56-6.73,23.74-18,21.43-43.11,18.72-68a123.17,123.17,0,0,1,3.06-43c3.46-14,10.88-27.66,5.9-42.16-8.31-24.22-46.32-34.87-72.94-34.44-20.15.32-39.75,5.77-57.33,14-16.72,7.79-32,17.23-52.15,16.86"/><circle class="cls-2" cx="265.5" cy="146.08" r="4.5" transform="translate(-9.22 273.98) rotate(-53.78)"/><circle class="cls-3" cx="278.48" cy="254.58" r="4.5" transform="translate(-91.45 328.84) rotate(-53.78)"/><path class="cls-3" d="M258.9,255.94l-4.73,6.45c-1.14,1.56,1.46,3.06,2.59,1.51l4.73-6.45c1.14-1.56-1.46-3.06-2.59-1.51Z"/><path class="cls-3" d="M261.82,261l-6.45-4.73c-1.56-1.14-3.06,1.46-1.51,2.59l6.45,4.73c1.56,1.14,3.06-1.46,1.51-2.59Z"/><path class="cls-4" d="M241,221.08c0,1,0,1.91,0,2.86a116.74,116.74,0,0,1-16.59,57.42c-.91,1.53-1.87,3.05-2.86,4.53q-2.48,3.75-5.23,7.29A117.5,117.5,0,1,1,40.52,137.9q3.33-3.33,6.94-6.38c1.26-1.09,2.55-2.13,3.86-3.15a117.59,117.59,0,0,1,119.1-15q4.95,2.15,9.65,4.75c1.46.79,2.9,1.63,4.31,2.49l.62,3.21-4.18,5L173,138.18l6,26.4,27.6-13.2,3.77-9.41a117.55,117.55,0,0,1,8.52,10.5l.59.82A116.94,116.94,0,0,1,241,221.08Z"/><path class="cls-5" d="M254,204.09A115.49,115.49,0,0,1,142.8,319.5c-1.41.06-2.84.09-4.27.09q-3.32,0-6.59-.19A115.5,115.5,0,1,1,179.69,96.15l.16.87L181,103l3.18,16.58.15.73,0,.3.62,3.21-4.18,5L173,138.18l6,26.4,27.6-13.2,3.77-9.41.22-.55.09-.24L215,130.32l3.57-8.94.5,0A115.24,115.24,0,0,1,254,204.09Z"/><path class="cls-6" d="M142.5,320.43c-2,.1-4,.15-6,.15a115.5,115.5,0,1,1,0-231c2,0,4,0,6,.15a115.51,115.51,0,0,0,0,230.7Z"/><path class="cls-6" d="M137.75,90.08c-1.57-.15-3.16-.27-4.75-.35,1.57-.08,3.16-.13,4.75-.13.42,0,.83,0,1.25,0A115.1,115.1,0,0,1,179.85,97L181,103A114.77,114.77,0,0,0,137.75,90.08Z"/><path class="cls-6" d="M254.5,205.08A115.52,115.52,0,0,1,139,320.58c-.42,0-.83,0-1.25,0-1.59,0-3.18,0-4.75-.13,1.59-.08,3.18-.2,4.75-.35s3.38-.34,5-.58A115.49,115.49,0,0,0,215,130.32l3.57-8.94a115.28,115.28,0,0,1,35.9,83.7Z"/><path class="cls-7" d="M234,204.09A95.5,95.5,0,1,1,63.14,145.47l.34-.45a95.56,95.56,0,0,1,116.59-26.94q2.16,1,4.26,2.19l0,.3.62,3.21-4.18,5L173,138.18l6,26.4,27.6-13.2,3.77-9.41.22-.55A95.24,95.24,0,0,1,234,204.09Z"/><g class="cls-8"><path class="cls-9" d="M233.11,203.34a95,95,0,0,1-94,94,1.5,1.5,0,0,0,0,3,98.07,98.07,0,0,0,97-97,1.5,1.5,0,0,0-3,0Z"/></g><path class="cls-3" d="M47.81,188.33a93.65,93.65,0,0,1,91.3-77.49c3.86,0,3.87-6,0-6-47.64.43-88.78,34.88-97.09,81.89-.67,3.78,5.11,5.4,5.79,1.6Z"/><path class="cls-3" d="M46.61,203.34q0-2.46.12-4.92a3,3,0,0,0-3-3,3.07,3.07,0,0,0-3,3q-.12,2.46-.12,4.92a3,3,0,0,0,6,0Z"/><path class="cls-3" d="M227.81,277c-31.4,37.71-83.73,52.25-129.88,35-40.61-15.18-70.09-53.58-74.13-96.76a116.44,116.44,0,0,1,24.57-83c2.37-3-1.85-7.27-4.24-4.24C12,168.61,8.36,226.31,36.71,269.94a121.25,121.25,0,0,0,195.35,11.3c2.45-2.95-1.77-7.21-4.24-4.24Z"/><path class="cls-3" d="M221.41,124a116.65,116.65,0,0,1,28.89,108.32c-.92,3.75,4.87,5.35,5.79,1.6a122.88,122.88,0,0,0-30.43-114.16c-2.67-2.8-6.91,1.45-4.24,4.24Z"/><path class="cls-3" d="M83.36,103.87a117.07,117.07,0,0,1,94.79-7.05c3.65,1.3,5.21-4.5,1.6-5.79a123,123,0,0,0-99.42,7.66c-3.4,1.83-.38,7,3,5.18Z"/><path class="cls-10" d="M169.11,203.78a22.71,22.71,0,0,0-7.79-3.42s3.87-2.26,5.46-4.53a17.3,17.3,0,0,0,2.51-7.59c.13-1.82.44-9.45-5.46-13.84-4.56-3.4-9.79-4.75-16.81-5.19v-15.4H137.6V169h-7.17V153.81H121V169H102.49v9.86h5.44c1.48,0,4.12.17,5.25,1.43s1.32,1.93,1.32,4.39,0,38.36,0,39.29a3.87,3.87,0,0,1-1,2.84c-.79.75-1.58.93-3.48.93h-5.63l-1.94,11.41H121v15.18h9.42V239.19h7.17v15.18H147V238.94c2.43-.14,4.7-.33,6-.5,2.68-.35,8.76-1.06,14.43-5.06s7-10.25,7.08-16.55S172.32,206.22,169.11,203.78Zm-38.68-24s3-.27,5.94-.22a29.73,29.73,0,0,1,9.42,1.33c3.87,1.2,6.16,4.13,6.25,7.59a7.45,7.45,0,0,1-4,7.23,22.79,22.79,0,0,1-9.72,2.39c-3.43.13-7.83,0-7.83,0Zm21.08,45.39c-2.16,1.2-6.47,2.26-10.65,2.57s-10.43.18-10.43.18V207.55s6-.31,10.65,0a29.94,29.94,0,0,1,10.34,2.4,8,8,0,0,1,4.84,7.5C156.26,222.1,153.66,224,151.5,225.16Z" data-name="BTC alt" id="BTC_alt"/><path class="cls-11" d="M213.23,158.69A54.63,54.63,0,0,1,222.89,179c.46,1.87,3.35,1.08,2.89-.8a56.67,56.67,0,0,0-10-21c-1.15-1.52-3.76,0-2.59,1.51Z"/><circle class="cls-3" cx="34.5" cy="112.08" r="4.5"/><circle class="cls-2" cx="5.5" cy="273.08" r="4.5"/><path class="cls-3" d="M4.5,143.58v8a1.5,1.5,0,0,0,3,0v-8a1.5,1.5,0,0,0-3,0Z"/><path class="cls-3" d="M10,146.08H2a1.5,1.5,0,0,0,0,3h8a1.5,1.5,0,0,0,0-3Z"/><g data-name="&lt;Group&gt;" id="_Group_"><rect class="cls-12" data-name="&lt;Path&gt;" height="201.46" id="_Path_" rx="4.59" ry="4.59" transform="translate(16.7 277.16) rotate(-47.4)" width="20.07" x="313.97" y="18.83"/></g><path class="cls-13" d="M249.57,51.7,397.88,188l4.57-5a3.57,3.57,0,0,0-.21-5L259.4,46.7a3.85,3.85,0,0,0-5.44.23Z"/><g class="cls-14"><path class="cls-15" d="M293.65,93.6c5.29,4.56,10.8,8.87,15.88,13.67,2.55,2.4,5,4.95,7.39,7.46l3.4,3.51c.64.66,3.62,3.07,2,1.45-4.36-4.45-9.8-8.08-14.4-12.31a178.45,178.45,0,0,1-14.31-14.7c-.32-.37-.84.17-.53.53,9.16,10.61,19.73,19.76,30.61,28.55.37.3.87-.18.53-.53-9.64-10-19.56-19.1-30.06-28.16-.36-.31-.9.21-.53.53Z"/></g><g class="cls-14"><path class="cls-15" d="M359.62,164.07c5.29,4.56,10.8,8.87,15.88,13.67,2.55,2.4,5,4.95,7.39,7.46l3.4,3.51c.64.66,3.62,3.07,2,1.45-4.36-4.45-9.8-8.08-14.4-12.31a178.45,178.45,0,0,1-14.31-14.7c-.32-.37-.84.17-.53.53,9.16,10.61,19.73,19.76,30.61,28.55.37.3.87-.18.53-.53-9.64-10-19.56-19.1-30.06-28.16-.36-.31-.9.21-.53.53Z"/></g><g class="cls-14"><path class="cls-15" d="M249.86,50.75a255.91,255.91,0,0,0,31.45,31.47c11.87,10,24.62,18.83,35.55,30,10.27,10.47,19.2,22.12,29.6,32.49a340.47,340.47,0,0,0,32.33,28.44c.38.29.76-.36.38-.65a338.74,338.74,0,0,1-34.07-30.22c-10.12-10.26-18.84-21.77-29-31.93-10.6-10.57-22.82-19-34.22-28.64a255.41,255.41,0,0,1-31.45-31.47c-.31-.37-.84.16-.53.53Z"/></g><g class="cls-14"><path class="cls-15" d="M279.5,82.54c17.27,21.18,39.58,36.63,58.45,56.16,18.14,18.78,35.42,37.75,57.41,52.2.4.27.78-.38.38-.65-22.52-14.8-39.9-34.34-58.57-53.44-9.34-9.55-19.73-17.83-29.74-26.62A236.67,236.67,0,0,1,280,82c-.31-.37-.83.16-.53.53Z"/></g><g class="cls-14"><path class="cls-15" d="M247.87,54.27c10.48,14.08,24.52,24.37,36.26,37.23,12.11,13.27,23.36,26.45,38,37.07.39.28.77-.37.38-.65-14.62-10.59-25.81-23.74-37.88-37C273,78.16,259,67.92,248.52,53.9c-.28-.38-.94,0-.65.38Z"/></g><g class="cls-14"><path class="cls-15" d="M372.2,162.68c10.48,6.25,17.85,15.75,26.55,24.05.35.33.88-.2.53-.53-8.75-8.35-16.18-17.9-26.7-24.17a.38.38,0,0,0-.38.65Z"/><path class="cls-15" d="M371.82,162.37c7.52,9.94,17.24,17.2,27.11,24.64.39.29.76-.36.38-.65-9.75-7.36-19.4-14.55-26.84-24.37-.29-.38-.94,0-.65.38Z"/></g><g class="cls-14"><path class="cls-15" d="M333.73,125.28c10.48,6.25,17.85,15.75,26.55,24.05.35.33.88-.2.53-.53-8.75-8.35-16.18-17.9-26.7-24.17a.38.38,0,0,0-.38.65Z"/><path class="cls-15" d="M333.34,125c7.52,9.94,17.24,17.2,27.11,24.64.39.29.76-.36.38-.65-9.75-7.36-19.4-14.55-26.84-24.37-.29-.38-.94,0-.65.38Z"/></g><g class="cls-14"><path class="cls-15" d="M254,46.87c10.05,10.26,20.32,20.95,33.21,27.65.43.22.81-.42.38-.65-12.83-6.67-23-17.32-33.06-27.54-.34-.35-.87.19-.53.53Z"/><path class="cls-15" d="M271.42,65.94a65.31,65.31,0,0,0,7.35,6.22,94.85,94.85,0,0,0,10.16,5.53c.43.22.81-.43.38-.65-3.07-1.59-6.29-3.05-9.22-4.9A57.2,57.2,0,0,1,272,65.41c-.35-.33-.88.2-.53.53Z"/></g><g class="cls-14"><path class="cls-15" d="M287.26,81A152.71,152.71,0,0,0,306.57,94.9c7.65,4.85,14.21,11.09,20.73,17.34.35.33.88-.2.53-.53-5.67-5.43-11.36-10.94-17.81-15.44-7.55-5.26-15.24-9.66-22.22-15.76-.36-.32-.89.21-.53.53Z"/></g><g class="cls-14"><path class="cls-15" d="M326,115.19a152.71,152.71,0,0,0,19.31,13.86c7.65,4.85,14.21,11.09,20.73,17.34.35.33.88-.2.53-.53-5.67-5.43-11.36-10.94-17.81-15.44-7.55-5.26-15.24-9.66-22.22-15.76-.36-.32-.89.21-.53.53Z"/></g><g class="cls-14"><path class="cls-15" d="M355.87,149.08A121.63,121.63,0,0,0,375,159.79c7.83,3.7,14.65,9.16,21.43,14.48.38.29.91-.23.53-.53-6.36-5-12.75-10.19-20-13.84s-14.09-6.77-20.68-11.47c-.39-.28-.77.37-.38.65Z"/></g><polygon class="cls-11" points="355.76 160.77 354.9 161.71 354.52 161.38 355.38 160.44 355.76 160.77"/><g data-name="&lt;Group&gt;" id="_Group_2"><g data-name="&lt;Group&gt;" id="_Group_3"><path class="cls-3" d="M247.6,58.27c2-2.13,7.36-10.3,10-9.28,2.31.87,5.07,4.66,6.86,6.3l31.62,29.07,82.34,75.71,13.36,12.28c2.09,1.92,5.07,3.88,6.73,6.19s.37,3.95-1.24,5.7c-1.81,2-4.5,6.62-7.81,5.11-2-.92-4.1-3.77-5.7-5.25l-73.12-67.23L270.8,80.21l-14.19-13c-2.44-2.25-5.88-4.53-7.85-7.21-.62-.84-1.7-.77-.7-2.29,2.13-3.23-3.06-6.24-5.18-3-3,4.59-.11,7.94,3.11,10.91l10.72,9.85,38.9,35.77,81.73,75.14c2.52,2.31,5,4.74,7.57,7,7,6,12.16.08,16.94-5.12,4.36-4.74,5.09-9.83.29-14.45-3-2.85-6.05-5.56-9.07-8.34L309.92,88.91,272.38,54.39c-3.19-2.94-6.36-5.9-9.58-8.81-3.75-3.38-7.72-4-11.6-.09-2.71,2.75-5.24,5.7-7.85,8.54S245,61.12,247.6,58.27Z"/></g></g><path class="cls-16" d="M275.73,54.91a3,3,0,0,1,0,4.16L256.3,78.5a2.95,2.95,0,0,1-4.15,0l-6.93-6.93-44.14,44.14c-.47-4.62,1.21-11.47,4.84-19.38,4.87-10.63,12.86-22.7,23.11-34.89l2.77-3.29-7.72-7.73a2.94,2.94,0,0,1,0-4.15l19.42-19.43a3,3,0,0,1,4.16,0l7.73,7.72,3.29-2.76c20.56-17.3,40.73-28,52.64-28,.57,0,1.11,0,1.62.08L268.81,48Z"/><path class="cls-11" d="M230.55,48.71a2.94,2.94,0,0,0,0,4.15l7.72,7.73-2.77,3.29c-10.25,12.19-18.24,24.26-23.11,34.89A64.7,64.7,0,0,0,208.6,109l-5.91,5.91c-.47-4.62,1.21-11.47,4.84-19.38,4.87-10.63,12.86-22.7,23.11-34.89l2.77-3.29-7.72-7.73a2.94,2.94,0,0,1,0-4.15L245.12,26a3,3,0,0,1,4.16,0l2.41,2.4a2.87,2.87,0,0,0-1.72.83Z"/><path class="cls-3" d="M273.14,55.62c1.09,1.65-12.11,13.1-13.92,14.92-.91.91-3.86,4.92-5,4.95-1.37,0-5.7-5.7-6.84-6.84a3,3,0,0,0-4.24,0L199,112.79l5.12,2.12c-.7-10.67,5.79-21.59,11.18-30.36a209,209,0,0,1,18.67-25.07,3.07,3.07,0,0,0,0-4.24c-1.41-1.41-7.71-6.26-7.51-7.85.11-.87,2.76-2.76,3.37-3.37l6.14-6.14L241.78,32c.65-.65,2.63-3.42,3.57-3.57,1.67-.26,6.42,5.93,7.93,7.44a3.08,3.08,0,0,0,4.24,0c8.72-7.33,17.67-14.33,27.49-20.13,8.26-4.88,18-10.21,27.94-9.71L310.83.91,266.68,45.06a3,3,0,0,0,0,4.24l6.93,6.93c2.73,2.73,7-1.51,4.24-4.24l-6.93-6.93V49.3L315.07,5.16A3,3,0,0,0,312.95,0c-10.44-.52-20.78,4.67-29.59,9.73-10.8,6.2-20.57,13.88-30.08,21.87h4.24c-3.29-3.29-8.36-11-13.85-9.13-1.85.61-3.24,2.37-4.57,3.7l-7.42,7.42-7.42,7.42c-1.34,1.34-3.08,2.73-3.71,4.59-1.84,5.45,5.89,10.58,9.14,13.83V55.23C222.26,64,215.13,73.07,209.2,83c-5.55,9.27-11.87,20.77-11.13,31.95A3,3,0,0,0,203.2,117l44.14-44.14H243.1c2.69,2.69,6.28,8,10.33,8.56s6.88-3.51,9.43-6.06l12-12c3.07-3.07,6.55-6.25,3.51-10.84C276.2,49.39,271,52.39,273.14,55.62Z"/><line class="cls-2" x1="179.69" x2="179" y1="96.15" y2="92.58"/><path class="cls-3" d="M176.06,94.73l7,28.65.77-2.92-8.66,10.66c-2,2.48-5.47,5.25-5,8.65,1.14,8.56,4,17.18,5.91,25.6.47,2,2.74,2.57,4.41,1.79L195.85,160l10-4.63c1.47-.68,2.8-1.09,3.8-2.41,1.14-1.5,1.82-3.76,2.64-5.45l5-10.42,7.28-15.05c1.67-3.46-3.5-6.51-5.18-3l-6.85,14.16-5.12,10.59c-.87,1.81-2.43,4-2.88,6-.12.53,1.62-.59.36-.51a10,10,0,0,0-2.69,1.25l-9.4,4.36L177.49,162l4.41,1.79-6-26-.77,2.92,9.25-11.39c2.2-2.71,5-4.86,4.28-8.52-1.8-9.29-4.55-18.48-6.81-27.67-.92-3.75-6.71-2.16-5.79,1.6Z"/><path class="cls-3" d="M181.89,80.78l-4-14c-1.06-3.71-6.85-2.13-5.79,1.6l4,14c1.06,3.71,6.85,2.13,5.79-1.6Z"/><path class="cls-3" d="M230.29,115.95l12.44-7.56c3.3-2,.28-7.19-3-5.18l-12.44,7.56c-3.3,2-.28,7.19,3,5.18Z"/></g></g></svg>